<?xml version="1.0" encoding="UTF-8" standalone="no"?>
<!DOCTYPE svg PUBLIC "-//W3C//DTD SVG 20010904//EN"
              "http://www.w3.org/TR/2001/REC-SVG-20010904/DTD/svg10.dtd">

<svg xmlns="http://www.w3.org/2000/svg"
     width="11.3778in" height="11.3778in"
     viewBox="0 0 1024 1024">
  <path id="Imported Path #6"
        fill="none" stroke="black" stroke-width="1"
        d="M 105.00,673.00
           C 105.00,673.00 105.00,706.00 105.00,706.00
             376.33,942.00 647.67,942.00 919.00,706.00
             919.00,706.00 919.00,673.00 919.00,673.00
             919.00,673.00 105.00,673.00 105.00,673.00 Z
           M 105.00,673.00
           C 105.00,673.00 257.00,687.00 257.00,687.00
             265.00,687.67 270.00,692.33 272.00,701.00
             272.00,701.00 276.00,768.00 276.00,768.00
             276.00,768.00 408.00,778.00 408.00,778.00
             408.00,778.00 416.00,717.00 416.00,717.00
             417.33,709.67 422.33,704.67 431.00,702.00
             431.00,702.00 593.00,702.00 593.00,702.00
             601.67,704.67 606.67,709.67 608.00,717.00
             608.00,717.00 616.00,778.00 616.00,778.00
             616.00,778.00 748.00,768.00 748.00,768.00
             748.00,768.00 752.00,701.00 752.00,701.00
             754.00,692.33 759.00,687.67 767.00,687.00
             767.00,687.00 919.00,673.00 919.00,673.00
             919.00,673.00 919.00,427.00 919.00,427.00
             939.00,401.00 957.67,374.00 975.00,346.00
             951.67,306.67 924.00,270.67 892.00,238.00
             863.33,251.33 836.00,267.00 810.00,285.00
             783.33,260.33 754.00,239.00 722.00,221.00
             726.67,187.00 729.33,153.00 730.00,119.00
             690.67,100.33 649.67,86.33 607.00,77.00
             589.67,105.67 574.33,135.33 561.00,166.00
             528.33,161.33 495.67,161.33 463.00,166.00
             449.67,135.33 434.33,105.67 417.00,77.00
             374.33,86.33 333.33,100.33 294.00,119.00
             294.67,153.00 297.33,187.00 302.00,221.00
             270.00,239.00 240.67,260.33 214.00,285.00
             188.00,267.00 160.67,251.33 132.00,238.00
             100.00,270.67 72.33,306.67 49.00,346.00
             66.33,374.00 85.00,401.00 105.00,427.00
             105.00,427.00 105.00,673.00 105.00,673.00 Z
           M 105.00,460.00
           C 105.00,460.00 105.00,499.00 105.00,499.00
             105.00,775.00 918.00,775.00 918.00,499.00
             918.00,499.00 918.00,460.00 918.00,460.00
             918.00,460.00 784.00,472.00 784.00,472.00
             784.00,472.00 779.00,541.00 779.00,541.00
             777.67,547.67 773.00,552.00 765.00,554.00
             765.00,554.00 603.00,565.00 603.00,565.00
             595.00,565.00 589.67,561.33 587.00,554.00
             587.00,554.00 577.00,489.00 577.00,489.00
             577.00,489.00 447.00,489.00 447.00,489.00
             447.00,489.00 437.00,554.00 437.00,554.00
             434.33,561.33 429.00,565.00 421.00,565.00
             421.00,565.00 259.00,554.00 259.00,554.00
             251.00,552.00 246.33,547.67 245.00,541.00
             245.00,541.00 240.00,472.00 240.00,472.00
             240.00,472.00 105.00,460.00 105.00,460.00 Z
           M 483.00,600.00
           C 486.00,634.00 538.00,634.00 541.00,600.00
             541.00,600.00 541.00,514.00 541.00,514.00
             538.00,480.00 486.00,480.00 483.00,514.00
             483.00,514.00 483.00,600.00 483.00,600.00 Z
           M 815.00,526.00
           C 815.00,575.71 774.71,616.00 725.00,616.00
             675.29,616.00 635.00,575.71 635.00,526.00
             635.00,476.29 675.29,436.00 725.00,436.00
             774.71,436.00 815.00,476.29 815.00,526.00 Z
           M 389.00,526.00
           C 389.00,575.71 348.71,616.00 299.00,616.00
             249.29,616.00 209.00,575.71 209.00,526.00
             209.00,476.29 249.29,436.00 299.00,436.00
             348.71,436.00 389.00,476.29 389.00,526.00 Z
           M 367.00,532.00
           C 367.00,565.14 340.14,592.00 307.00,592.00
             273.86,592.00 247.00,565.14 247.00,532.00
             247.00,498.86 273.86,472.00 307.00,472.00
             340.14,472.00 367.00,498.86 367.00,532.00 Z
           M 777.00,532.00
           C 777.00,565.14 750.14,592.00 717.00,592.00
             683.86,592.00 657.00,565.14 657.00,532.00
             657.00,498.86 683.86,472.00 717.00,472.00
             750.14,472.00 777.00,498.86 777.00,532.00 Z" />
</svg>
